<svg width="28" height="28" viewBox="0 0 28 28" fill="none" xmlns="http://www.w3.org/2000/svg">
<path d="M20 13.8281C20 13.5352 19.8945 13.2773 19.6719 13.0547L10.3789 3.9727C10.1797 3.7617 9.9219 3.6562 9.6172 3.6562C9.0078 3.6562 8.5391 4.1133 8.5391 4.7227C8.5391 5.0273 8.668 5.2852 8.8555 5.4844L17.3867 13.8281L8.8555 22.1719C8.668 22.3711 8.5391 22.6406 8.5391 22.9336C8.5391 23.543 9.0078 24 9.6172 24C9.9219 24 10.1797 23.8945 10.3789 23.6953L19.6719 14.6016C19.8945 14.3906 20 14.1211 20 13.8281Z"  />
</svg>
