<svg width="28" height="28" viewBox="0 0 28 28" fill="none" xmlns="http://www.w3.org/2000/svg">
<path d="M13.8281 8C13.5352 8 13.2773 8.10547 13.0547 8.32812L3.9727 17.6211C3.7617 17.8203 3.6562 18.0781 3.6562 18.3828C3.6562 18.9922 4.1133 19.4609 4.7227 19.4609C5.0273 19.4609 5.2852 19.332 5.4844 19.1445L13.8281 10.6133L22.1719 19.1445C22.3711 19.332 22.6406 19.4609 22.9336 19.4609C23.543 19.4609 24 18.9922 24 18.3828C24 18.0781 23.8945 17.8203 23.6953 17.6211L14.6016 8.32812C14.3906 8.10547 14.1211 8 13.8281 8Z" fill="black"/>
</svg>
